<svg width="139" height="129" viewBox="0 0 139 129" fill="none" xmlns="http://www.w3.org/2000/svg">
<path d="M0 60.9516C0 41.9008 3.41617 26.9795 10.2485 16.1877C17.1911 5.3959 28.6518 0 44.6306 0C60.6095 0 72.0151 5.3959 78.8474 16.1877C85.79 26.9795 89.2612 41.9008 89.2612 60.9516C89.2612 80.1126 85.79 95.144 78.8474 106.046C72.0151 116.948 60.6095 122.399 44.6306 122.399C28.6518 122.399 17.1911 116.948 10.2485 106.046C3.41617 95.144 0 80.1126 0 60.9516ZM66.45 60.9516C66.45 52.8027 65.899 45.9753 64.797 40.4692C63.8053 34.8531 61.7115 30.2831 58.5157 26.7592C55.4301 23.2354 50.8018 21.4735 44.6306 21.4735C38.4595 21.4735 33.776 23.2354 30.5802 26.7592C27.4947 30.2831 25.4009 34.8531 24.2989 40.4692C23.3071 45.9753 22.8112 52.8027 22.8112 60.9516C22.8112 69.3208 23.3071 76.3685 24.2989 82.0947C25.2907 87.7109 27.3845 92.2809 30.5802 95.8047C33.776 99.2184 38.4595 100.925 44.6306 100.925C50.8018 100.925 55.4852 99.2184 58.681 95.8047C61.8768 92.2809 63.9706 87.7109 64.9623 82.0947C65.9541 76.3685 66.45 69.3208 66.45 60.9516Z" fill="white"/>
<path d="M139 108.241C139 110.74 138.351 113.095 137.052 115.305C135.802 117.467 133.927 119.269 131.426 120.711C128.974 122.104 126.065 122.921 122.699 123.162V129H118.082V123.09C113.274 122.657 109.403 121.215 106.469 118.765C103.536 116.266 102.021 112.902 101.925 108.674H112.745C113.033 112.134 114.812 114.224 118.082 114.945V101.178C114.62 100.313 111.831 99.4477 109.715 98.5828C107.599 97.7178 105.772 96.3243 104.233 94.4022C102.694 92.4801 101.925 89.8612 101.925 86.5456C101.925 82.365 103.416 78.9533 106.397 76.3104C109.427 73.6675 113.322 72.1539 118.082 71.7694V65.9311H122.699V71.7694C127.315 72.1539 130.994 73.5474 133.734 75.95C136.524 78.3526 138.086 81.6683 138.423 85.8969H127.531C127.387 84.5034 126.882 83.3021 126.017 82.2929C125.199 81.2358 124.093 80.491 122.699 80.0585V93.6814C126.305 94.5944 129.142 95.4834 131.21 96.3483C133.326 97.1652 135.153 98.5347 136.692 100.457C138.231 102.331 139 104.926 139 108.241ZM112.456 86.041C112.456 87.6268 112.937 88.9242 113.899 89.9333C114.86 90.8944 116.255 91.6872 118.082 92.3119V79.8423C116.351 80.0825 114.981 80.7312 113.971 81.7884C112.961 82.8456 112.456 84.2631 112.456 86.041ZM122.699 115.089C124.526 114.752 125.944 114.008 126.954 112.854C128.012 111.701 128.541 110.308 128.541 108.674C128.541 107.088 128.036 105.815 127.026 104.854C126.017 103.893 124.574 103.1 122.699 102.475V115.089Z" fill="white"/>
</svg>
