<svg width="126" height="105" viewBox="0 0 126 105" fill="none" xmlns="http://www.w3.org/2000/svg">
<path d="M0.779785 25.0601V2.80006H39.5598V105H14.6398V25.0601H0.779785Z" fill="url(#paint0_linear)"/>
<path d="M55.0965 85.8201C58.2698 83.3001 59.7165 82.1334 59.4365 82.3201C68.5832 74.7601 75.7698 68.5534 80.9965 63.7001C86.3165 58.8467 90.7965 53.7601 94.4365 48.4401C98.0765 43.1201 99.8965 37.9401 99.8965 32.9001C99.8965 29.0734 99.0098 26.0867 97.2365 23.9401C95.4632 21.7934 92.8032 20.7201 89.2565 20.7201C85.7098 20.7201 82.9098 22.0734 80.8565 24.7801C78.8965 27.3934 77.9165 31.1267 77.9165 35.9801H54.8165C55.0032 28.0467 56.6832 21.4201 59.8565 16.1001C63.1232 10.7801 67.3698 6.86006 72.5965 4.34006C77.9165 1.82006 83.7965 0.560059 90.2365 0.560059C101.343 0.560059 109.697 3.40672 115.297 9.10006C120.99 14.7934 123.837 22.2134 123.837 31.3601C123.837 41.3467 120.43 50.6334 113.617 59.2201C106.803 67.7134 98.1232 76.0201 87.5765 84.1401H125.377V103.6H55.0965V85.8201Z" fill="url(#paint1_linear)"/>
<defs>
<linearGradient id="paint0_linear" x1="-0.670403" y1="46.9769" x2="78.2541" y2="120.262" gradientUnits="userSpaceOnUse">
<stop stop-color="#FF972A"/>
<stop offset="1" stop-color="#FF7512"/>
</linearGradient>
<linearGradient id="paint1_linear" x1="-0.670403" y1="46.9769" x2="78.2541" y2="120.262" gradientUnits="userSpaceOnUse">
<stop stop-color="#FF972A"/>
<stop offset="1" stop-color="#FF7512"/>
</linearGradient>
</defs>
</svg>
