<svg width="121" height="16" viewBox="0 0 121 16" fill="none" xmlns="http://www.w3.org/2000/svg">
<path d="M3.16796 4.96019V12.0002H7.67996V0.0961914H4.06396C3.50396 1.47219 2.41596 2.35219 0.287964 2.48019V4.96019H3.16796Z" fill="black"/>
<path d="M9.26796 12.0002H13.7V4.57619L17.86 12.0002H20.18L24.356 4.57619V12.0002H28.852V0.0961914H22.868L19.156 6.78419L15.508 0.0961914H9.26796V12.0002Z" fill="black"/>
<path d="M34.617 0.0961914H30.265V12.0002H34.617V0.0961914Z" fill="black"/>
<path d="M35.89 12.0002H40.242V8.00019C40.242 6.78419 41.058 5.90419 42.53 5.90419C44.018 5.90419 44.61 6.73619 44.61 7.88819V12.0002H48.978V6.46419C48.978 5.10419 47.97 3.20019 44.754 3.20019H44.658C41.97 3.20019 40.642 4.51219 40.21 4.91219V3.39219H35.89V12.0002Z" fill="black"/>
<path d="M54.6173 8.88019H50.1053V12.0002H54.6173V8.88019Z" fill="black"/>
<path d="M65.8736 7.10419H61.9216L63.8736 3.00819L65.8736 7.10419ZM68.2576 12.0002H73.2336L67.0096 0.0961914H60.8976L55.0096 12.0002H59.6176L60.5296 10.0802H67.3296L68.2576 12.0002Z" fill="black"/>
<path d="M77.9443 3.39219H73.6243V12.0002H77.9763V7.66419C77.9763 6.57619 78.5523 5.80819 79.5763 5.80819C80.7123 5.80819 81.1283 6.60819 81.1283 7.56819V7.87219H85.3523V7.00819C85.3523 5.16819 84.5843 3.20019 81.7363 3.20019H81.5443C79.4003 3.20019 78.2803 4.48019 77.9443 4.97619V3.39219Z" fill="black"/>
<path d="M90.617 12.0002V7.98419C90.617 6.81619 91.369 5.90419 92.729 5.90419C94.041 5.90419 94.505 6.76819 94.505 7.87219V12.0002H98.873V7.98419C98.873 6.81619 99.625 5.90419 100.985 5.90419C102.297 5.90419 102.761 6.76819 102.761 7.87219V12.0002H107.113V6.46419C107.113 5.12019 106.201 3.20019 103.129 3.20019H103.017C100.617 3.20019 99.193 4.33619 98.505 4.97619C97.993 4.04819 96.953 3.20019 94.953 3.20019H94.857C92.249 3.20019 90.969 4.54419 90.585 4.92819V3.39219H86.265V12.0002H90.617Z" fill="black"/>
<path d="M108.951 15.0082H112.999C114.551 15.0082 115.479 14.1762 116.311 12.3682L120.455 3.39219H116.135L113.911 8.92819L111.511 3.39219H106.871L110.935 11.2002C111.175 11.6482 111.303 11.8882 111.303 12.0642V12.0802C111.303 12.2242 111.223 12.3522 110.903 12.3522H108.951V15.0082Z" fill="black"/>
</svg>
