<svg width="121" height="16" viewBox="0 0 121 16" fill="none" xmlns="http://www.w3.org/2000/svg">
<path d="M3.16809 4.9597V11.9997H7.68009V0.0957031H4.06409C3.50409 1.4717 2.41609 2.3517 0.288086 2.4797V4.9597H3.16809Z" fill="white"/>
<path d="M9.26809 11.9997H13.7001V4.5757L17.8601 11.9997H20.1801L24.3561 4.5757V11.9997H28.8521V0.0957031H22.8681L19.1561 6.7837L15.5081 0.0957031H9.26809V11.9997Z" fill="white"/>
<path d="M34.6171 0.0957031H30.2651V11.9997H34.6171V0.0957031Z" fill="white"/>
<path d="M35.8901 11.9997H40.2421V7.9997C40.2421 6.7837 41.0581 5.9037 42.5301 5.9037C44.0181 5.9037 44.6101 6.7357 44.6101 7.8877V11.9997H48.9781V6.4637C48.9781 5.1037 47.9701 3.1997 44.7541 3.1997H44.6581C41.9701 3.1997 40.6421 4.5117 40.2101 4.9117V3.3917H35.8901V11.9997Z" fill="white"/>
<path d="M54.6175 8.8797H50.1055V11.9997H54.6175V8.8797Z" fill="white"/>
<path d="M65.8737 7.1037H61.9217L63.8737 3.0077L65.8737 7.1037ZM68.2577 11.9997H73.2337L67.0097 0.0957031H60.8977L55.0097 11.9997H59.6177L60.5297 10.0797H67.3297L68.2577 11.9997Z" fill="white"/>
<path d="M77.9445 3.3917H73.6245V11.9997H77.9765V7.6637C77.9765 6.5757 78.5525 5.8077 79.5765 5.8077C80.7125 5.8077 81.1285 6.6077 81.1285 7.5677V7.8717H85.3525V7.0077C85.3525 5.1677 84.5845 3.1997 81.7365 3.1997H81.5445C79.4005 3.1997 78.2805 4.4797 77.9445 4.9757V3.3917Z" fill="white"/>
<path d="M90.6171 11.9997V7.9837C90.6171 6.8157 91.3691 5.9037 92.7291 5.9037C94.0411 5.9037 94.5051 6.7677 94.5051 7.8717V11.9997H98.8731V7.9837C98.8731 6.8157 99.6251 5.9037 100.985 5.9037C102.297 5.9037 102.761 6.7677 102.761 7.8717V11.9997H107.113V6.4637C107.113 5.1197 106.201 3.1997 103.129 3.1997H103.017C100.617 3.1997 99.1931 4.3357 98.5051 4.9757C97.9931 4.0477 96.9531 3.1997 94.9531 3.1997H94.8571C92.2491 3.1997 90.9691 4.5437 90.5851 4.9277V3.3917H86.2651V11.9997H90.6171Z" fill="white"/>
<path d="M108.951 15.0077H112.999C114.551 15.0077 115.479 14.1757 116.311 12.3677L120.455 3.3917H116.135L113.911 8.9277L111.511 3.3917H106.871L110.935 11.1997C111.175 11.6477 111.303 11.8877 111.303 12.0637V12.0797C111.303 12.2237 111.223 12.3517 110.903 12.3517H108.951V15.0077Z" fill="white"/>
</svg>
