<svg width="243" height="113" viewBox="0 0 243 113" fill="none" xmlns="http://www.w3.org/2000/svg">
<path d="M69.9918 20.3979H21.1182V46.2352C23.23 43.6162 26.2469 41.5009 30.1689 39.8892C34.0908 38.1768 38.2642 37.3206 42.6889 37.3206C50.734 37.3206 57.3208 39.0833 62.4496 42.6089C67.5783 46.1345 71.2991 50.6673 73.612 56.2075C75.925 61.6469 77.0814 67.4893 77.0814 73.7345C77.0814 85.3185 73.7629 94.6361 67.1257 101.687C60.5891 108.738 51.2368 112.264 39.0687 112.264C27.6045 112.264 18.4533 109.393 11.615 103.651C4.77674 97.9098 0.905066 90.4054 0 81.1382H20.5148C21.4199 85.1674 23.4312 88.3908 26.5486 90.8083C29.7666 93.2258 33.8394 94.4346 38.767 94.4346C44.7002 94.4346 49.1752 92.5711 52.1921 88.8441C55.209 85.1171 56.7175 80.1813 56.7175 74.0367C56.7175 67.7915 55.1587 63.0571 52.0413 59.8338C49.0244 56.5097 44.5494 54.8476 38.6161 54.8476C34.3925 54.8476 30.8728 55.9053 28.057 58.0206C25.2413 60.136 23.23 62.9564 22.0233 66.482H1.81013V1.81315H69.9918V20.3979Z" fill="url(#paint0_linear)"/>
<path d="M93.1546 55.7542C93.1546 38.3279 96.2721 24.6789 102.507 14.8073C108.842 4.93578 119.301 0 133.883 0C148.464 0 158.872 4.93578 165.107 14.8073C171.443 24.6789 174.611 38.3279 174.611 55.7542C174.611 73.2813 171.443 87.0309 165.107 97.0032C158.872 106.976 148.464 111.962 133.883 111.962C119.301 111.962 108.842 106.976 102.507 97.0032C96.2721 87.0309 93.1546 73.2813 93.1546 55.7542ZM153.794 55.7542C153.794 48.3002 153.291 42.0549 152.286 37.0184C151.381 31.8811 149.47 27.7008 146.554 24.4774C143.738 21.2541 139.514 19.6424 133.883 19.6424C128.251 19.6424 123.977 21.2541 121.061 24.4774C118.245 27.7008 116.334 31.8811 115.329 37.0184C114.424 42.0549 113.971 48.3002 113.971 55.7542C113.971 63.4097 114.424 69.8564 115.329 75.0944C116.234 80.2316 118.144 84.412 121.061 87.6353C123.977 90.758 128.251 92.3193 133.883 92.3193C139.514 92.3193 143.788 90.758 146.704 87.6353C149.621 84.412 151.531 80.2316 152.436 75.0944C153.341 69.8564 153.794 63.4097 153.794 55.7542Z" fill="url(#paint1_linear)"/>
<path d="M184.232 72.688C184.232 68.8 185.336 65.8 187.544 63.688C189.8 61.576 192.704 60.52 196.256 60.52C199.808 60.52 202.688 61.576 204.896 63.688C207.104 65.8 208.208 68.8 208.208 72.688C208.208 76.576 207.104 79.576 204.896 81.688C202.688 83.8 199.808 84.856 196.256 84.856C192.704 84.856 189.8 83.8 187.544 81.688C185.336 79.576 184.232 76.576 184.232 72.688ZM233.12 61.312L205.4 112H193.52L221.24 61.312H233.12ZM196.184 67.72C193.88 67.72 192.728 69.376 192.728 72.688C192.728 75.952 193.88 77.584 196.184 77.584C197.288 77.584 198.152 77.176 198.776 76.36C199.4 75.544 199.712 74.32 199.712 72.688C199.712 69.376 198.536 67.72 196.184 67.72ZM218.504 100.624C218.504 96.736 219.608 93.736 221.816 91.624C224.024 89.512 226.904 88.456 230.456 88.456C234.008 88.456 236.888 89.512 239.096 91.624C241.304 93.736 242.408 96.736 242.408 100.624C242.408 104.512 241.304 107.512 239.096 109.624C236.888 111.736 234.008 112.792 230.456 112.792C226.904 112.792 224.024 111.736 221.816 109.624C219.608 107.512 218.504 104.512 218.504 100.624ZM230.384 95.656C229.28 95.656 228.416 96.064 227.792 96.88C227.216 97.696 226.928 98.944 226.928 100.624C226.928 103.888 228.08 105.52 230.384 105.52C231.488 105.52 232.352 105.112 232.976 104.296C233.6 103.48 233.912 102.256 233.912 100.624C233.912 98.992 233.6 97.768 232.976 96.952C232.352 96.088 231.488 95.656 230.384 95.656Z" fill="url(#paint2_linear)"/>
<defs>
<linearGradient id="paint0_linear" x1="4.24596" y1="24.5919" x2="221.936" y2="129.114" gradientUnits="userSpaceOnUse">
<stop stop-color="#FF972A"/>
<stop offset="1" stop-color="#FF7512"/>
</linearGradient>
<linearGradient id="paint1_linear" x1="4.24596" y1="24.5919" x2="221.936" y2="129.114" gradientUnits="userSpaceOnUse">
<stop stop-color="#FF972A"/>
<stop offset="1" stop-color="#FF7512"/>
</linearGradient>
<linearGradient id="paint2_linear" x1="4.24596" y1="24.5919" x2="221.936" y2="129.114" gradientUnits="userSpaceOnUse">
<stop stop-color="#FF972A"/>
<stop offset="1" stop-color="#FF7512"/>
</linearGradient>
</defs>
</svg>
