<svg width="20" height="20" viewBox="0 0 20 20" fill="none" xmlns="http://www.w3.org/2000/svg">
<path d="M10.0002 3.85107C7.9652 3.85207 5.97232 4.43033 4.25293 5.51871C2.53354 6.60709 1.15819 8.16092 0.286621 9.99976C1.15739 11.8392 2.53255 13.3935 4.25212 14.482C5.9717 15.5705 7.965 16.1484 10.0002 16.1484C12.0352 16.1484 14.0286 15.5705 15.7481 14.482C17.4677 13.3935 18.8428 11.8392 19.7137 9.99976C18.8421 8.16092 17.4667 6.60709 15.7473 5.51871C14.0279 4.43033 12.0351 3.85207 10.0002 3.85107ZM10.0002 14.4817C8.41933 14.4749 6.8673 14.0584 5.49547 13.2729C4.12365 12.4874 2.9789 11.3597 2.17295 9.99976C2.97376 8.63526 4.11737 7.50379 5.49035 6.7176C6.86333 5.93142 8.418 5.51782 10.0002 5.51782C11.5822 5.51782 13.1369 5.93142 14.5099 6.7176C15.8829 7.50379 17.0265 8.63526 17.8272 9.99976C17.0213 11.3597 15.8766 12.4874 14.5047 13.2729C13.1329 14.0584 11.5809 14.4749 10.0002 14.4817ZM10.0002 6.94624C9.39616 6.94624 8.80583 7.12532 8.30369 7.46085C7.80155 7.79637 7.41016 8.27327 7.17905 8.83126C6.94795 9.38917 6.88747 10.0031 7.0053 10.5954C7.12311 11.1878 7.41393 11.7318 7.84097 12.1589C8.26801 12.5859 8.81208 12.8768 9.40441 12.9946C9.99675 13.1124 10.6107 13.0519 11.1687 12.8208C11.7266 12.5897 12.2035 12.1983 12.539 11.6962C12.8745 11.194 13.0537 10.6037 13.0537 9.99976C13.0537 9.18992 12.7319 8.41326 12.1592 7.84059C11.5867 7.26795 10.81 6.94624 10.0002 6.94624ZM10.0002 11.3866C9.72583 11.3866 9.45766 11.3053 9.22966 11.1528C9.00158 11.0004 8.82383 10.7838 8.71883 10.5304C8.61391 10.2771 8.58641 9.99817 8.63991 9.72917C8.69341 9.46017 8.8255 9.21309 9.0195 9.01909C9.21341 8.82517 9.46058 8.69309 9.72958 8.63959C9.99858 8.58601 10.2774 8.61351 10.5308 8.71851C10.7842 8.82342 11.0008 9.00117 11.1532 9.22926C11.3056 9.45734 11.387 9.72542 11.387 9.99976C11.3865 10.3674 11.2403 10.7199 10.9803 10.9799C10.7203 11.2399 10.3678 11.3862 10.0002 11.3866Z" fill="#9CA3AF"/>
</svg>
