<svg width="15" height="15" viewBox="0 0 15 15" fill="none" xmlns="http://www.w3.org/2000/svg">
<g clip-path="url(#clip0)">
<path d="M14.7325 2.20958C14.3751 1.85204 13.7964 1.85201 13.439 2.20955L4.80147 10.847L1.56105 7.60663C1.2036 7.24909 0.624955 7.24906 0.267474 7.6066C-0.0891579 7.96326 -0.0891579 8.54354 0.267474 8.90015L4.15471 12.7874C4.5121 13.1448 5.09083 13.1448 5.44826 12.7874L14.7325 3.50309C15.0891 3.14646 15.0891 2.56615 14.7325 2.20958Z" fill="#B7E183"/>
<path d="M14.7332 2.20958C14.3757 1.85204 13.7971 1.85201 13.4396 2.20955L7.13477 8.51439V11.1015L14.7332 3.50309C15.0898 3.14646 15.0898 2.56615 14.7332 2.20958Z" fill="#71DE56"/>
</g>
<defs>
<clipPath id="clip0">
<rect width="15" height="15" fill="white"/>
</clipPath>
</defs>
</svg>
