<svg width="81" height="88" viewBox="0 0 81 88" fill="none" xmlns="http://www.w3.org/2000/svg">
<path fill-rule="evenodd" clip-rule="evenodd" d="M80.1448 58.4772C80.1448 63.8362 77.2858 68.7881 72.6448 71.4676L47.9869 85.7038C43.3459 88.3833 37.628 88.3833 32.987 85.7038L8.3291 71.4676C3.68808 68.7881 0.829103 63.8362 0.829103 58.4772L0.829102 30.0048C0.829101 24.6458 3.68809 19.6939 8.3291 17.0144L32.987 2.77817C37.628 0.0986795 43.3459 0.0986841 47.9869 2.77818L72.6448 17.0144C77.2858 19.6939 80.1448 24.6458 80.1448 30.0048V58.4772Z" fill="#3574FF"/>
<path d="M32.0989 57.8324H47.9051C48.1631 57.8324 48.4137 57.7997 48.6528 57.7383C49.0392 57.9998 49.4506 58.2233 49.8846 58.4068C50.7757 58.7837 51.7211 58.9749 52.6943 58.9749C53.6675 58.9749 54.6129 58.7838 55.504 58.4068C56.3637 58.0433 57.1353 57.5232 57.7973 56.8612C58.4593 56.1991 58.9794 55.4276 59.343 54.568C59.7198 53.6768 59.911 52.7315 59.911 51.7582C59.911 50.7849 59.7199 49.8396 59.343 48.9485C58.9794 48.0888 58.4593 47.3173 57.7973 46.6552C57.1353 45.9932 56.3637 45.4731 55.504 45.1096C54.6129 44.7327 53.6676 44.5415 52.6943 44.5415C51.7211 44.5415 50.7757 44.7326 49.8846 45.1096C49.5655 45.2444 49.2588 45.401 48.9652 45.5783C48.8464 45.4423 48.723 45.3097 48.5944 45.1812C47.8673 44.4542 47.0203 43.8832 46.0764 43.484C45.0981 43.0701 44.0601 42.8604 42.9914 42.8604H37.0126C35.9438 42.8604 34.9059 43.0702 33.9276 43.484C32.9838 43.8832 32.1367 44.4542 31.4097 45.1812C30.6827 45.9081 30.1117 46.7553 29.7125 47.6991C29.2987 48.6774 29.0889 49.7154 29.0889 50.7841V54.8224C29.0889 56.4821 30.4392 57.8324 32.0989 57.8324ZM42.9915 45.0782C44.6927 45.0782 46.2197 45.823 47.2651 47.004C46.7567 47.5835 46.3473 48.2356 46.0457 48.9484C45.6688 49.8396 45.4776 50.7849 45.4776 51.7582C45.4776 52.7314 45.6687 53.6768 46.0457 54.5679C46.2002 54.9333 46.3833 55.2826 46.5933 55.6144H32.0989C31.6615 55.6144 31.3068 55.2598 31.3068 54.8223V50.784C31.3068 47.6328 33.8614 45.0782 37.0126 45.0782H42.9915V45.0782ZM52.6944 46.7594C55.4551 46.7594 57.6931 48.9975 57.6931 51.7582C57.6931 54.5189 55.455 56.757 52.6944 56.757C51.9239 56.757 51.1944 56.5826 50.5428 56.2713C50.2056 56.1103 49.8893 55.9127 49.5991 55.6835C49.2602 55.416 48.9569 55.1055 48.6972 54.7603C48.0684 53.9243 47.6955 52.8848 47.6955 51.7582C47.6955 50.7886 47.9719 49.8838 48.4495 49.1174C48.6786 48.7502 48.9537 48.4148 49.2671 48.1195C49.5424 47.8601 49.8471 47.6317 50.1756 47.4397C50.9154 47.0074 51.7758 46.7594 52.6944 46.7594Z" fill="white"/>
<path d="M52.6944 59.0004C51.7177 59.0004 50.769 58.8086 49.8745 58.4303C49.4452 58.2487 49.0326 58.0252 48.648 57.7659C48.4063 57.8269 48.1564 57.8578 47.9051 57.8578H32.0989C30.4249 57.8578 29.063 56.4959 29.063 54.8219V50.7836C29.063 49.7114 29.2735 48.6701 29.6886 47.6886C30.0891 46.7416 30.662 45.8917 31.3914 45.1624C32.1207 44.433 32.9706 43.8601 33.9176 43.4596C34.8991 43.0444 35.9404 42.834 37.0126 42.834H42.9915C44.0637 42.834 45.1051 43.0445 46.0865 43.4596C47.0333 43.8601 47.8833 44.4329 48.6127 45.1624C48.733 45.2826 48.8533 45.4111 48.9704 45.5444C49.2596 45.3711 49.5637 45.2167 49.8745 45.0852C50.7689 44.707 51.7176 44.5151 52.6944 44.5151C53.6711 44.5151 54.6198 44.707 55.5141 45.0852C56.377 45.4502 57.1513 45.9721 57.8156 46.6365C58.48 47.3009 59.0019 48.0751 59.3669 48.9379C59.7452 49.8323 59.9369 50.781 59.9369 51.7577C59.9369 52.7344 59.7452 53.6832 59.3669 54.5776C59.002 55.4403 58.48 56.2146 57.8156 56.879C57.1512 57.5434 56.3769 58.0653 55.5141 58.4303C54.6197 58.8086 53.671 59.0004 52.6944 59.0004ZM48.6577 57.71L48.6674 57.7165C49.052 57.9767 49.4649 58.2009 49.8947 58.3826C50.7827 58.7582 51.7247 58.9487 52.6944 58.9487C53.664 58.9487 54.6059 58.7582 55.494 58.3826C56.3506 58.0203 57.1194 57.5021 57.779 56.8425C58.4387 56.1828 58.9569 55.414 59.3192 54.5575C59.6947 53.6695 59.8851 52.7275 59.8851 51.7578C59.8851 50.788 59.6947 49.8461 59.3192 48.9581C58.9569 48.1016 58.4387 47.3328 57.779 46.6731C57.1195 46.0135 56.3506 45.4953 55.494 45.133C54.606 44.7574 53.6641 44.567 52.6944 44.567C51.7246 44.567 50.7826 44.7574 49.8947 45.133C49.5794 45.2663 49.2712 45.4234 48.9787 45.6L48.9601 45.6112L48.9458 45.5949C48.8249 45.4566 48.7006 45.3234 48.5762 45.1991C47.8515 44.4744 47.007 43.9053 46.0664 43.5074C45.0914 43.0949 44.0568 42.8858 42.9915 42.8858H37.0126C35.9474 42.8858 34.9128 43.0949 33.9377 43.5074C32.9969 43.9053 32.1526 44.4745 31.4279 45.1991C30.7034 45.9236 30.1342 46.768 29.7363 47.7087C29.3239 48.6839 29.1148 49.7185 29.1148 50.7837V54.822C29.1148 56.4674 30.4534 57.8061 32.0989 57.8061H47.9051C48.156 57.8061 48.4054 57.7748 48.6464 57.7129L48.6577 57.71ZM52.6944 56.7825C51.9374 56.7825 51.2097 56.6182 50.5316 56.2943C50.1955 56.1337 49.8763 55.935 49.5832 55.7035C49.2425 55.4345 48.9374 55.1222 48.6766 54.7755C48.0179 53.8998 47.6697 52.8564 47.6697 51.7578C47.6697 50.8168 47.9318 49.8989 48.4277 49.1034C48.6573 48.7354 48.9337 48.3979 49.2495 48.1003C49.527 47.8389 49.8343 47.6089 50.1628 47.417C50.9282 46.9696 51.8036 46.7332 52.6944 46.7332C55.465 46.7332 57.719 48.9873 57.719 51.7579C57.719 54.5285 55.4649 56.7825 52.6944 56.7825ZM52.6944 46.7849C51.8128 46.7849 50.9463 47.0189 50.1888 47.4616C49.8638 47.6516 49.5597 47.8791 49.2849 48.1379C48.9724 48.4324 48.6988 48.7665 48.4716 49.1307C47.9808 49.918 47.7215 50.8265 47.7215 51.7578C47.7215 52.845 48.0661 53.8777 48.718 54.7443C48.9762 55.0876 49.278 55.3966 49.6152 55.6628C49.9053 55.8919 50.2212 56.0886 50.554 56.2475C51.2251 56.5681 51.9452 56.7307 52.6944 56.7307C55.4365 56.7307 57.6673 54.4998 57.6673 51.7578C57.6672 49.0158 55.4364 46.7849 52.6944 46.7849ZM46.6403 55.6399H32.0989C31.6479 55.6399 31.2809 55.273 31.2809 54.8219V50.7836C31.2809 47.6232 33.8522 45.052 37.0126 45.052H42.9915C44.6316 45.052 46.1963 45.7571 47.2845 46.9865L47.2996 47.0035L47.2846 47.0207C46.7779 47.5983 46.3691 48.2501 46.0695 48.9581C45.694 49.846 45.5035 50.788 45.5035 51.7578C45.5035 52.7276 45.694 53.6696 46.0695 54.5575C46.2223 54.9188 46.4059 55.2696 46.6152 55.6002L46.6403 55.6399ZM37.0126 45.1038C33.8807 45.1038 31.3327 47.6517 31.3327 50.7836V54.8219C31.3327 55.2444 31.6764 55.5881 32.0989 55.5881H46.5465C46.3461 55.2668 46.1697 54.9271 46.0219 54.5776C45.6436 53.6834 45.4517 52.7346 45.4517 51.7578C45.4517 50.781 45.6436 49.8323 46.0219 48.9379C46.3206 48.2318 46.7272 47.5812 47.2306 47.0038C46.1529 45.7959 44.6092 45.1038 42.9915 45.1038H37.0126V45.1038Z" fill="white"/>
<path d="M44.8265 30.0247C44.2006 29.3989 43.4711 28.9072 42.6585 28.5635C41.8159 28.2071 40.9221 28.0264 40.0021 28.0264C39.082 28.0264 38.1882 28.2071 37.3456 28.5635C36.5329 28.9072 35.8034 29.3989 35.1776 30.0247C34.5517 30.6506 34.0601 31.38 33.7163 32.1928C33.3599 33.0354 33.1792 33.9291 33.1792 34.8492C33.1792 35.7693 33.3599 36.6631 33.7163 37.5057C34.0601 38.3184 34.5517 39.0478 35.1776 39.6737C35.8035 40.2996 36.5329 40.7912 37.3456 41.135C38.1882 41.4914 39.082 41.6721 40.0021 41.6721C40.9221 41.6721 41.8159 41.4914 42.6585 41.135C43.4712 40.7913 44.2007 40.2996 44.8265 39.6737C45.4523 39.0478 45.9441 38.3184 46.2878 37.5057C46.6441 36.6631 46.8248 35.7693 46.8248 34.8492C46.8248 33.9291 46.6441 33.0354 46.2878 32.1928C45.9441 31.38 45.4523 30.6506 44.8265 30.0247ZM40.002 39.4541C37.4588 39.4541 35.3971 37.3924 35.3971 34.8492C35.3971 32.3061 37.4588 30.2444 40.002 30.2444C42.5452 30.2444 44.6069 32.3061 44.6069 34.8492C44.6069 37.3924 42.5452 39.4541 40.002 39.4541Z" fill="white"/>
<path d="M40.0021 41.6975C39.0785 41.6975 38.1814 41.5161 37.3356 41.1583C36.5198 40.8132 35.7876 40.3198 35.1593 39.6915C34.531 39.0632 34.0375 38.331 33.6925 37.5152C33.3347 36.6694 33.1533 35.7723 33.1533 34.8487C33.1533 33.9251 33.3347 33.028 33.6925 32.1822C34.0375 31.3664 34.531 30.6342 35.1593 30.0059C35.7876 29.3777 36.5197 28.8842 37.3356 28.5391C38.1813 28.1814 39.0784 28 40.0021 28C40.9256 28 41.8228 28.1814 42.6686 28.5392C43.4844 28.8842 44.2166 29.3777 44.8448 30.006C45.4732 30.6344 45.9667 31.3666 46.3117 32.1823C46.6694 33.0281 46.8507 33.9252 46.8507 34.8488C46.8507 35.7723 46.6694 36.6694 46.3117 37.5153C45.9667 38.3309 45.4732 39.0631 44.8448 39.6915C44.2166 40.3198 43.4844 40.8133 42.6686 41.1583C41.8228 41.516 40.9257 41.6975 40.0021 41.6975ZM40.0021 28.0518C39.0854 28.0518 38.1951 28.2318 37.3557 28.5868C36.546 28.9293 35.8194 29.419 35.1959 30.0425C34.5724 30.6661 34.0826 31.3928 33.7401 32.2023C33.3851 33.0417 33.2051 33.9321 33.2051 34.8487C33.2051 35.7653 33.3851 36.6557 33.7401 37.4951C34.0825 38.3047 34.5723 39.0313 35.1959 39.6549C35.8194 40.2784 36.5461 40.7681 37.3557 41.1106C38.1951 41.4656 39.0854 41.6456 40.0021 41.6456C40.9187 41.6456 41.809 41.4656 42.6484 41.1106C43.458 40.7682 44.1847 40.2784 44.8082 39.6549C45.4318 39.0312 45.9217 38.3045 46.2639 37.4951C46.6189 36.6557 46.799 35.7653 46.799 34.8487C46.799 33.9321 46.6189 33.0417 46.2639 32.2023C45.9217 31.3929 45.4318 30.6662 44.8082 30.0425C44.1847 29.419 43.4581 28.9293 42.6484 28.5868C41.809 28.2318 40.9187 28.0518 40.0021 28.0518ZM40.002 39.4795C37.4486 39.4795 35.3713 37.4021 35.3713 34.8488C35.3713 32.2954 37.4486 30.218 40.002 30.218C42.5554 30.218 44.6328 32.2954 44.6328 34.8488C44.6328 37.4021 42.5555 39.4795 40.002 39.4795ZM40.002 30.2697C37.4771 30.2697 35.423 32.3238 35.423 34.8487C35.423 37.3736 37.4772 39.4277 40.002 39.4277C42.5269 39.4277 44.581 37.3736 44.581 34.8487C44.581 32.3238 42.5269 30.2697 40.002 30.2697Z" fill="white"/>
<path d="M50.1871 52.6979C49.7541 53.1309 49.7541 53.8331 50.1871 54.2662C50.3896 54.4686 50.6508 54.5764 50.9158 54.5896C50.9343 54.5905 50.9528 54.591 50.9713 54.591C51.2551 54.591 51.5389 54.4827 51.7554 54.2662L52.6949 53.3267L53.6344 54.2662C53.851 54.4828 54.1347 54.591 54.4185 54.591C54.7023 54.591 54.9862 54.4827 55.2027 54.2662C55.6358 53.8332 55.6358 53.131 55.2027 52.6979L54.2632 51.7584L55.2027 50.8189C55.6358 50.3859 55.6358 49.6837 55.2027 49.2506C54.7696 48.8175 54.0674 48.8175 53.6343 49.2506L52.6949 50.1901L51.7554 49.2506C51.4703 48.9655 51.0687 48.8682 50.7039 48.9584C50.5146 49.0052 50.3351 49.1026 50.187 49.2506C49.7541 49.6837 49.7541 50.3859 50.187 50.8189L50.9158 51.5476L51.1266 51.7584L50.9158 51.9692L50.1871 52.6979Z" fill="white"/>
<path d="M54.4182 54.6165C54.1151 54.6165 53.8301 54.4984 53.6157 54.2841L52.6945 53.3629L51.7733 54.2841C51.5456 54.5118 51.2362 54.6314 50.9141 54.615C50.6326 54.601 50.3678 54.4835 50.1684 54.2841C49.954 54.0697 49.8359 53.7847 49.8359 53.4816C49.8359 53.1785 49.954 52.8935 50.1684 52.6791L51.0897 51.7579L50.1684 50.8367C49.726 50.3942 49.726 49.6743 50.1684 49.2318C50.3145 49.0857 50.4974 48.9823 50.6974 48.9328C50.7867 48.9107 50.8788 48.8995 50.971 48.8995C51.2741 48.8995 51.559 49.0175 51.7733 49.2318L52.6945 50.153L53.6157 49.2318C53.8301 49.0175 54.1151 48.8994 54.4182 48.8994C54.7213 48.8994 55.0063 49.0175 55.2207 49.2318C55.4351 49.4462 55.5531 49.7312 55.5531 50.0343C55.5531 50.3374 55.4351 50.6224 55.2207 50.8367L54.2995 51.7579L55.2207 52.6792C55.4351 52.8936 55.5531 53.1785 55.5531 53.4817C55.5531 53.7847 55.4351 54.0697 55.2207 54.2841C55.0064 54.4984 54.7214 54.6165 54.4182 54.6165ZM52.6945 53.2897L53.6523 54.2475C53.8569 54.452 54.1289 54.5647 54.4182 54.5647C54.7076 54.5647 54.9796 54.452 55.1841 54.2475C55.3886 54.0429 55.5013 53.771 55.5013 53.4817C55.5013 53.1924 55.3886 52.9203 55.1841 52.7158L54.2263 51.7579L55.1841 50.8001C55.3886 50.5956 55.5013 50.3236 55.5013 50.0343C55.5013 49.745 55.3886 49.473 55.1841 49.2685C54.9795 49.0638 54.7075 48.9512 54.4182 48.9512C54.1289 48.9512 53.8569 49.0638 53.6523 49.2685L52.6945 50.2262L51.7367 49.2685C51.5322 49.0639 51.2603 48.9513 50.971 48.9513C50.8829 48.9513 50.7951 48.962 50.7098 48.983C50.519 49.0302 50.3445 49.1289 50.205 49.2685C49.7828 49.6907 49.7828 50.3778 50.205 50.8001L51.1629 51.7579L50.205 52.7157C50.0004 52.9203 49.8877 53.1923 49.8877 53.4816C49.8877 53.7709 50.0004 54.0429 50.205 54.2475C50.3953 54.4378 50.648 54.5499 50.9166 54.5633C51.224 54.5775 51.5193 54.4649 51.7367 54.2475L52.6945 53.2897Z" fill="white"/>
</svg>
