<svg width="81" height="88" viewBox="0 0 81 88" fill="none" xmlns="http://www.w3.org/2000/svg">
<path fill-rule="evenodd" clip-rule="evenodd" d="M80.1448 58.4772C80.1448 63.8362 77.2858 68.7881 72.6448 71.4676L47.9869 85.7038C43.3459 88.3833 37.628 88.3833 32.987 85.7038L8.3291 71.4676C3.68808 68.7881 0.829102 63.8362 0.829102 58.4772L0.829102 30.0048C0.829101 24.6458 3.68809 19.6939 8.3291 17.0144L32.987 2.77817C37.628 0.0986798 43.3459 0.0986838 47.9869 2.77818L72.6448 17.0144C77.2858 19.6939 80.1448 24.6458 80.1448 30.0048V58.4772Z" fill="#FF9446"/>
<g clip-path="url(#clip0)">
<path d="M44.9338 41.7312L45.9087 38.7156C46.001 38.4302 45.9512 38.1179 45.7747 37.8755C45.5983 37.633 45.3165 37.4896 45.0166 37.4896H40.8918V34.7716C41.4811 34.9691 42.0978 35.07 42.7163 35.07C43.5244 35.07 44.3353 34.8994 45.0903 34.5526C46.9336 33.7062 48.1973 31.9237 48.3882 29.9009C48.4198 29.5667 48.2703 29.2412 47.9962 29.0473C46.3375 27.874 44.162 27.6709 42.3187 28.5174C41.3442 28.9649 40.5319 29.6742 39.9542 30.5421C39.3766 29.6742 38.5642 28.9649 37.5897 28.5174C35.7466 27.6709 33.571 27.8739 31.9123 29.0473C31.6382 29.2412 31.4888 29.5667 31.5203 29.9009C31.7112 31.9237 32.9749 33.7062 34.8182 34.5526C35.5733 34.8994 36.384 35.07 37.1921 35.07C37.8106 35.07 38.4273 34.9691 39.0166 34.7716V37.4896H34.9823C34.6824 37.4896 34.4006 37.633 34.2242 37.8755C34.0478 38.1179 33.9979 38.4302 34.0901 38.7156L34.908 41.2456L33.8196 41.2505C33.8179 41.2505 33.816 41.2505 33.8142 41.2505C33.5948 41.2505 33.3885 41.1654 33.2327 41.0107C33.0756 40.8545 32.9891 40.6466 32.9891 40.4252C32.9891 39.9073 32.5693 39.4875 32.0515 39.4875C31.5337 39.4875 31.1139 39.9073 31.1139 40.4252C31.1139 41.1497 31.3969 41.8301 31.9109 42.3408C32.3164 42.7436 32.8264 43.0015 33.3785 43.0905C31.7401 44.7602 30.7696 47.0141 30.7325 49.4287C30.7325 49.4336 30.7324 49.4383 30.7324 49.4431V55.9224C30.7324 58.1708 32.5626 60 34.8123 60H45.1875C47.4371 60 49.2674 58.1708 49.2674 55.9224V49.5733C49.2674 46.3569 47.6258 43.4202 44.9338 41.7312V41.7312ZM43.1012 30.2215C44.165 29.7331 45.3939 29.7656 46.4258 30.2853C46.1476 31.4066 45.3714 32.3601 44.3077 32.8485C43.2441 33.337 42.0151 33.3045 40.9831 32.7847C41.2614 31.6634 42.0375 30.71 43.1012 30.2215V30.2215ZM35.6008 32.8486C34.537 32.3601 33.7608 31.4067 33.4826 30.2854C34.5144 29.7656 35.7433 29.7331 36.8072 30.2216C37.8709 30.71 38.6471 31.6635 38.9253 32.7848C37.8934 33.3044 36.6645 33.337 35.6008 32.8486ZM43.728 39.3648L43.1217 41.2404H36.8772L36.2708 39.3648H43.728ZM47.3922 55.9223C47.3922 57.1367 46.4032 58.1247 45.1875 58.1247H34.8123C33.5967 58.1247 32.6076 57.1367 32.6076 55.9223V49.4505C32.6507 46.8036 34.0998 44.3987 36.4075 43.1157H43.5913C45.9419 44.4218 47.3922 46.8741 47.3922 49.5733V55.9223Z" fill="white"/>
<path d="M41.0583 49.6292C40.4009 49.3969 39.6755 49.1178 39.2807 48.8084C39.2198 48.7606 39.1747 48.606 39.211 48.4134C39.2291 48.3173 39.3127 47.9965 39.6298 47.901C40.238 47.7179 40.6494 47.9562 40.798 48.0672C41.2129 48.3771 41.8004 48.2921 42.1103 47.8772C42.4202 47.4623 42.3352 46.8748 41.9204 46.5649C41.7683 46.4513 41.4075 46.2143 40.8919 46.0729V45.923C40.8919 45.4052 40.4721 44.9854 39.9542 44.9854C39.4364 44.9854 39.0166 45.4052 39.0166 45.923V46.13C38.1696 46.4148 37.5409 47.1491 37.3681 48.0662C37.2035 48.94 37.4931 49.7899 38.1239 50.2842C38.7304 50.7596 39.5924 51.1002 40.4337 51.3973C40.9943 51.5953 41.0511 51.9992 41.0001 52.3031C40.9283 52.7304 40.5684 53.1921 39.9481 53.1962C39.256 53.2008 39.0757 53.1725 38.5616 52.8364C38.1283 52.5531 37.5472 52.6748 37.2637 53.1082C36.9804 53.5416 37.1021 54.1227 37.5355 54.4061C38.0988 54.7743 38.528 54.945 39.0166 55.0195V55.1865C39.0166 55.7043 39.4364 56.1241 39.9542 56.1241C40.4721 56.1241 40.8919 55.7043 40.8919 55.1865V54.9189C41.9874 54.5518 42.6876 53.5767 42.8493 52.6138C43.0724 51.2859 42.3527 50.0864 41.0583 49.6292V49.6292Z" fill="white"/>
</g>
<defs>
<clipPath id="clip0">
<rect width="32" height="32" fill="white" transform="translate(24 28)"/>
</clipPath>
</defs>
</svg>
