<svg width="81" height="88" viewBox="0 0 81 88" fill="none" xmlns="http://www.w3.org/2000/svg">
<path fill-rule="evenodd" clip-rule="evenodd" d="M80.1448 58.4772C80.1448 63.8362 77.2858 68.7881 72.6448 71.4676L47.9869 85.7038C43.3459 88.3833 37.628 88.3833 32.987 85.7038L8.3291 71.4676C3.68808 68.7881 0.829102 63.8362 0.829102 58.4772L0.829102 30.0048C0.829101 24.6458 3.68809 19.6939 8.3291 17.0144L32.987 2.77817C37.628 0.0986798 43.3459 0.0986838 47.9869 2.77818L72.6448 17.0144C77.2858 19.6939 80.1448 24.6458 80.1448 30.0048V58.4772Z" fill="#FF5339"/>
<path d="M49.829 47.4806C50.37 46.6518 50.4553 45.6161 50.0571 44.7101L43.4754 29.7343L43.472 29.7266L43.4686 29.7189C43.2312 29.1891 42.8487 28.7503 42.3626 28.45C41.9139 28.1729 41.3959 28.0264 40.8644 28.0264C40.0805 28.0264 39.3218 28.3488 38.7828 28.9111C38.2426 29.4746 37.9635 30.2203 37.9969 31.0106L37.997 31.012L37.997 31.0133L38.3562 39.2738H32.6155C31.6248 39.2738 30.7103 39.7694 30.1695 40.5996C29.6286 41.4297 29.5447 42.4664 29.945 43.3728L36.5244 58.2691L36.5275 58.2761L36.5306 58.283C36.7684 58.8119 37.1508 59.2499 37.6365 59.5497C38.0849 59.8264 38.6026 59.9726 39.1335 59.9726C39.9175 59.9726 40.6763 59.6501 41.2153 59.0876C41.7555 58.524 42.0345 57.7782 42.0009 56.9877L42.0009 56.9863L42.0008 56.9848L41.6424 48.8042H47.3844C48.3741 48.8041 49.288 48.3093 49.829 47.4806ZM39.8201 46.5008C39.502 46.5008 39.2481 46.7658 39.2616 47.0835L39.6997 57.0855C39.7153 57.4506 39.4249 57.6692 39.1335 57.6692C38.934 57.6692 38.734 57.5667 38.6314 57.3385L32.0519 42.4422C31.872 42.0349 32.1703 41.5771 32.6155 41.5771H40.178C40.4959 41.5771 40.7499 41.3122 40.7365 40.9945L40.2982 30.9133C40.2828 30.5482 40.573 30.3297 40.8644 30.3297C41.0641 30.3297 41.2643 30.4325 41.3668 30.6611L47.9485 45.6368C48.1275 46.044 47.8292 46.5008 47.3845 46.5008L39.8201 46.5008Z" fill="white"/>
<path d="M39.1335 60C38.5977 60 38.0752 59.8524 37.6225 59.5731C37.1321 59.2705 36.7461 58.8284 36.5061 58.2946L36.4999 58.2805L29.9204 43.3841C29.5164 42.4695 29.6012 41.4232 30.1469 40.5854C30.6928 39.7476 31.6156 39.2474 32.6156 39.2474H38.3281L37.9702 31.015C37.9363 30.2145 38.218 29.4619 38.7634 28.893C39.3074 28.3255 40.0732 28 40.8644 28C41.4008 28 41.9237 28.1479 42.3767 28.4277C42.8674 28.7309 43.2535 29.1737 43.4931 29.7084L43.5 29.724L50.0818 44.6997C50.4837 45.6142 50.3976 46.6593 49.8516 47.4958C49.3056 48.3321 48.3833 48.8315 47.3844 48.8316H41.6706L42.0278 56.9842C42.0619 57.785 41.7802 58.5378 41.2348 59.1068C40.6907 59.6744 39.9248 60 39.1335 60ZM32.6156 39.3012C31.6339 39.3012 30.7279 39.7922 30.192 40.6148C29.6561 41.4373 29.573 42.4644 29.9696 43.3624L36.5552 58.2725C36.7907 58.7965 37.1696 59.2304 37.6507 59.5273C38.0949 59.8014 38.6077 59.9462 39.1335 59.9462C39.9103 59.9462 40.662 59.6267 41.1959 59.0695C41.7311 58.5112 42.0075 57.7725 41.9742 56.9894L41.6145 48.7778H47.3845C48.3651 48.7777 49.2706 48.2875 49.8066 47.4664C50.3426 46.6453 50.4272 45.6191 50.0326 44.7213L43.4441 29.7305C43.2088 29.2056 42.83 28.7709 42.3484 28.4734C41.904 28.1989 41.3908 28.0538 40.8644 28.0538C40.0877 28.0538 39.3361 28.3732 38.8021 28.9302C38.267 29.4884 37.9906 30.2271 38.0237 31.01L38.3843 39.3012H32.6156V39.3012ZM39.1335 57.6966C38.9013 57.6966 38.7045 57.567 38.6069 57.35L32.0273 42.4535C31.9391 42.2538 31.9576 42.0255 32.0768 41.8427C32.1959 41.6598 32.3973 41.5507 32.6156 41.5507H40.178C40.3244 41.5507 40.4608 41.4924 40.5621 41.3868C40.6635 41.2811 40.7158 41.1424 40.7096 40.9961L40.2713 30.9149C40.2643 30.7479 40.3178 30.5999 40.4262 30.4868C40.5381 30.3702 40.6978 30.3032 40.8644 30.3032C41.0969 30.3032 41.2939 30.4331 41.3914 30.6505L47.9732 45.6264C48.0609 45.8259 48.0421 46.054 47.923 46.2366C47.8038 46.4191 47.6025 46.5281 47.3844 46.5281H39.8201C39.6737 46.5281 39.5373 46.5864 39.436 46.6921C39.3346 46.7978 39.2823 46.9366 39.2884 47.0829L39.7266 57.0849C39.7337 57.2519 39.6802 57.3999 39.5718 57.513C39.46 57.6297 39.3002 57.6966 39.1335 57.6966ZM32.6156 41.6044C32.4156 41.6044 32.231 41.7044 32.1218 41.872C32.0126 42.0395 31.9957 42.2488 32.0765 42.4317L38.656 57.3281C38.7446 57.5251 38.9231 57.6428 39.1335 57.6428C39.2856 57.6428 39.4312 57.5819 39.533 57.4757C39.631 57.3735 39.6794 57.2392 39.6729 57.0872L39.2348 47.0852C39.228 46.9241 39.2856 46.7712 39.3972 46.6548C39.5088 46.5385 39.659 46.4744 39.8202 46.4744L47.3845 46.4743C47.5843 46.4743 47.7687 46.3745 47.8779 46.2072C47.9872 46.0399 48.0043 45.8309 47.9239 45.648L41.3422 30.6722C41.2537 30.4749 41.0751 30.3569 40.8644 30.3569C40.7123 30.3569 40.5667 30.4178 40.4649 30.5239C40.367 30.6262 40.3185 30.7606 40.325 30.9126L40.7633 40.9937C40.77 41.1548 40.7124 41.3075 40.6008 41.4239C40.4893 41.5403 40.3391 41.6043 40.1779 41.6043H32.6156V41.6044Z" fill="white"/>
</svg>
